# xmcd
# Copyright (C) 1995-1998 Ti Kan
#
# Track frame offsets:
#       150
#       8100
#       19225
#       29753
#       41840
#       59310
#       77683
#       85867
#       98683
#       107774
#       119053
#       136563
#       147089
#       159315
#       168671
#       186172
#       192007
#       205621
#       212825
#       236347
#
# Disc length: 3319 seconds
#
# Revision: 0
# Processed by: cddbd v1.4PL0 Copyright (c) Steve Scherf et al.
# Submitted via: CD-Transfer v1.0
#
DISCID=0a0cf514
DTITLE=Jodlerklub Edelweiss, Ibach - Trad.
DYEAR=03
DGENRE=
TTITLE0=Rose Juz Mit Einleitung (Naturjuz)
TTITLE1=Bim Dorli Und Osi (Schottisch)
TTITLE2=Fruehöfler (Naturjuz)
TTITLE3=Geisle-Zwick (Ländlerwalzer)
TTITLE4=Mys Briefli (Jodellied)
TTITLE5=Sandra Üse Ufputzüntel (Polka)
TTITLE6=Ehrlejuz (Naturjuz)
TTITLE7=Än Altä Hüritaler (Mazurka)
TTITLE8=Am Träsmärä-Seeli (Büchel-Bläser)
TTITLE9=Schwyzerjuz (Naturjuz)
TTITLE10=Glückwunsch Marsch (Marsch)
TTITLE11=Studegässler (Naturjuz)
TTITLE12=Ä Gläsigä Heiwäg (Ländler)
TTITLE13=Prosit Bruno (Schottisch)
TTITLE14=E Chilterbueb (Jodellied)
TTITLE15=Fyrabigjuz (Naturjuz)
TTITLE16=Jetzt Isch Fyrabig (Schottisch)
TTITLE17=Fronalpjützli (Naturjuz)
TTITLE18=Casino-Walzer (Walzer)
TTITLE19=Dir Herr (Jodellied)
EXTD=
EXTT0=
EXTT1=
EXTT2=
EXTT3=
EXTT4=
EXTT5=
EXTT6=
EXTT7=
EXTT8=
EXTT9=
EXTT10=
EXTT11=
EXTT12=
EXTT13=
EXTT14=
EXTT15=
EXTT16=
EXTT17=
EXTT18=
EXTT19=
PLAYORDER=
